<svg width="442" height="105" viewBox="0 0 442 105" fill="none" xmlns="http://www.w3.org/2000/svg">
<path d="M88.7287 84.6622H4V18.9781L46.3643 50.4598L88.7287 18.9781V84.6622Z" stroke="#C6966C" stroke-width="7.77327"/>
<path d="M17.4673 10V99.7813H75.8251V10L48.8907 32.4453L17.4673 10Z" stroke="#C6966C" stroke-width="8.97813"/>
<path d="M153.655 35.6061V74H145.954V49.0275L135.668 74H129.837L119.496 49.0275V74H111.795V35.6061H120.541L132.753 64.154L144.964 35.6061H153.655ZM174.8 74.4951C171.866 74.4951 169.226 73.8533 166.879 72.5699C164.532 71.2497 162.68 69.3979 161.323 67.0143C160.003 64.6307 159.343 61.8804 159.343 58.7634C159.343 55.6465 160.021 52.8962 161.378 50.5126C162.772 48.129 164.66 46.2955 167.044 45.012C169.427 43.6919 172.086 43.0318 175.02 43.0318C177.953 43.0318 180.612 43.6919 182.995 45.012C185.379 46.2955 187.249 48.129 188.606 50.5126C189.999 52.8962 190.696 55.6465 190.696 58.7634C190.696 61.8804 189.981 64.6307 188.551 67.0143C187.158 69.3979 185.251 71.2497 182.83 72.5699C180.447 73.8533 177.77 74.4951 174.8 74.4951ZM174.8 67.7844C176.193 67.7844 177.495 67.4543 178.705 66.7943C179.952 66.0975 180.942 65.0708 181.675 63.714C182.409 62.3571 182.775 60.707 182.775 58.7634C182.775 55.8665 182.005 53.6479 180.465 52.1078C178.962 50.5309 177.11 49.7425 174.91 49.7425C172.709 49.7425 170.858 50.5309 169.354 52.1078C167.887 53.6479 167.154 55.8665 167.154 58.7634C167.154 61.6604 167.869 63.8973 169.299 65.4741C170.766 67.0143 172.599 67.7844 174.8 67.7844ZM213.507 43.0868C215.817 43.0868 217.871 43.6002 219.667 44.627C221.464 45.6171 222.858 47.1023 223.848 49.0825C224.875 51.026 225.388 53.3729 225.388 56.1232V74H217.687V57.1683C217.687 54.748 217.082 52.8962 215.872 51.6127C214.662 50.2926 213.012 49.6325 210.922 49.6325C208.795 49.6325 207.108 50.2926 205.861 51.6127C204.651 52.8962 204.046 54.748 204.046 57.1683V74H196.345V33.2959H204.046V47.3223C205.036 46.0021 206.356 44.9754 208.006 44.242C209.656 43.4719 211.49 43.0868 213.507 43.0868ZM236.616 39.8965C235.26 39.8965 234.123 39.4748 233.206 38.6314C232.326 37.7513 231.886 36.6695 231.886 35.3861C231.886 34.1026 232.326 33.0392 233.206 32.1957C234.123 31.3156 235.26 30.8756 236.616 30.8756C237.973 30.8756 239.092 31.3156 239.972 32.1957C240.889 33.0392 241.347 34.1026 241.347 35.3861C241.347 36.6695 240.889 37.7513 239.972 38.6314C239.092 39.4748 237.973 39.8965 236.616 39.8965ZM240.412 43.5269V74H232.711V43.5269H240.412ZM285.864 43.0868C289.604 43.0868 292.611 44.242 294.885 46.5522C297.195 48.8258 298.35 52.0161 298.35 56.1232V74H290.65V57.1683C290.65 54.7847 290.044 52.9695 288.834 51.7227C287.624 50.4393 285.974 49.7975 283.884 49.7975C281.794 49.7975 280.125 50.4393 278.878 51.7227C277.668 52.9695 277.063 54.7847 277.063 57.1683V74H269.362V57.1683C269.362 54.7847 268.757 52.9695 267.547 51.7227C266.337 50.4393 264.687 49.7975 262.597 49.7975C260.47 49.7975 258.783 50.4393 257.536 51.7227C256.326 52.9695 255.721 54.7847 255.721 57.1683V74H248.02V43.5269H255.721V47.2123C256.711 45.9288 257.976 44.9204 259.516 44.187C261.093 43.4536 262.817 43.0868 264.687 43.0868C267.07 43.0868 269.197 43.6002 271.068 44.627C272.938 45.6171 274.386 47.0473 275.413 48.9174C276.403 47.1573 277.833 45.7455 279.703 44.682C281.61 43.6186 283.664 43.0868 285.864 43.0868ZM309.068 74.385C307.675 74.385 306.52 73.9633 305.603 73.1199C304.723 72.2398 304.283 71.158 304.283 69.8746C304.283 68.5911 304.723 67.5277 305.603 66.6843C306.52 65.8042 307.675 65.3641 309.068 65.3641C310.425 65.3641 311.544 65.8042 312.424 66.6843C313.304 67.5277 313.744 68.5911 313.744 69.8746C313.744 71.158 313.304 72.2398 312.424 73.1199C311.544 73.9633 310.425 74.385 309.068 74.385ZM317.966 58.7634C317.966 55.6098 318.608 52.8595 319.891 50.5126C321.175 48.129 322.953 46.2955 325.227 45.012C327.501 43.6919 330.104 43.0318 333.038 43.0318C336.815 43.0318 339.932 43.9853 342.389 45.8921C344.882 47.7623 346.551 50.4026 347.394 53.8129H339.088C338.648 52.4928 337.897 51.466 336.833 50.7326C335.806 49.9625 334.523 49.5775 332.983 49.5775C330.783 49.5775 329.041 50.3843 327.757 51.9978C326.474 53.5746 325.832 55.8298 325.832 58.7634C325.832 61.6604 326.474 63.9156 327.757 65.5291C329.041 67.106 330.783 67.8944 332.983 67.8944C336.1 67.8944 338.135 66.5009 339.088 63.714H347.394C346.551 67.0143 344.882 69.6362 342.389 71.5798C339.895 73.5233 336.778 74.4951 333.038 74.4951C330.104 74.4951 327.501 73.8533 325.227 72.5699C322.953 71.2497 321.175 69.4162 319.891 67.0693C318.608 64.6857 317.966 61.9171 317.966 58.7634ZM366.567 74.4951C363.634 74.4951 360.993 73.8533 358.646 72.5699C356.299 71.2497 354.448 69.3979 353.091 67.0143C351.771 64.6307 351.111 61.8804 351.111 58.7634C351.111 55.6465 351.789 52.8962 353.146 50.5126C354.539 48.129 356.428 46.2955 358.811 45.012C361.195 43.6919 363.854 43.0318 366.787 43.0318C369.721 43.0318 372.379 43.6919 374.763 45.012C377.147 46.2955 379.017 48.129 380.374 50.5126C381.767 52.8962 382.464 55.6465 382.464 58.7634C382.464 61.8804 381.749 64.6307 380.319 67.0143C378.925 69.3979 377.018 71.2497 374.598 72.5699C372.214 73.8533 369.537 74.4951 366.567 74.4951ZM366.567 67.7844C367.961 67.7844 369.262 67.4543 370.473 66.7943C371.719 66.0975 372.709 65.0708 373.443 63.714C374.176 62.3571 374.543 60.707 374.543 58.7634C374.543 55.8665 373.773 53.6479 372.233 52.1078C370.729 50.5309 368.877 49.7425 366.677 49.7425C364.477 49.7425 362.625 50.5309 361.122 52.1078C359.655 53.6479 358.921 55.8665 358.921 58.7634C358.921 61.6604 359.636 63.8973 361.067 65.4741C362.533 67.0143 364.367 67.7844 366.567 67.7844ZM425.956 43.0868C429.697 43.0868 432.704 44.242 434.977 46.5522C437.288 48.8258 438.443 52.0161 438.443 56.1232V74H430.742V57.1683C430.742 54.7847 430.137 52.9695 428.927 51.7227C427.717 50.4393 426.066 49.7975 423.976 49.7975C421.886 49.7975 420.218 50.4393 418.971 51.7227C417.761 52.9695 417.156 54.7847 417.156 57.1683V74H409.455V57.1683C409.455 54.7847 408.85 52.9695 407.64 51.7227C406.429 50.4393 404.779 49.7975 402.689 49.7975C400.562 49.7975 398.875 50.4393 397.629 51.7227C396.418 52.9695 395.813 54.7847 395.813 57.1683V74H388.113V43.5269H395.813V47.2123C396.803 45.9288 398.069 44.9204 399.609 44.187C401.186 43.4536 402.909 43.0868 404.779 43.0868C407.163 43.0868 409.29 43.6002 411.16 44.627C413.03 45.6171 414.479 47.0473 415.505 48.9174C416.495 47.1573 417.926 45.7455 419.796 44.682C421.703 43.6186 423.756 43.0868 425.956 43.0868Z" fill="#2D3849"/>
</svg>
